<svg version="1.1" xmlns="http://www.w3.org/2000/svg" viewBox="0 0 25 20">
<rect width="1" height="1" fill="#297303" x="13" y="0" />
<rect width="1" height="1" fill="#297303" x="14" y="0" />
<rect width="1" height="1" fill="#297303" x="15" y="0" />
<rect width="1" height="1" fill="#297303" x="16" y="0" />
<rect width="1" height="1" fill="#297303" x="10" y="1" />
<rect width="1" height="1" fill="#297303" x="11" y="1" />
<rect width="1" height="1" fill="#297303" x="12" y="1" />
<rect width="1" height="1" fill="#44af10" x="13" y="1" />
<rect width="1" height="1" fill="#369904" x="14" y="1" />
<rect width="1" height="1" fill="#44af10" x="15" y="1" />
<rect width="1" height="1" fill="#369904" x="16" y="1" />
<rect width="1" height="1" fill="#297303" x="17" y="1" />
<rect width="1" height="1" fill="#297303" x="18" y="1" />
<rect width="1" height="1" fill="#297303" x="9" y="2" />
<rect width="1" height="1" fill="#44af10" x="10" y="2" />
<rect width="1" height="1" fill="#369904" x="11" y="2" />
<rect width="1" height="1" fill="#44af10" x="12" y="2" />
<rect width="1" height="1" fill="#369904" x="13" y="2" />
<rect width="1" height="1" fill="#44af10" x="14" y="2" />
<rect width="1" height="1" fill="#369904" x="15" y="2" />
<rect width="1" height="1" fill="#44af10" x="16" y="2" />
<rect width="1" height="1" fill="#369904" x="17" y="2" />
<rect width="1" height="1" fill="#369904" x="18" y="2" />
<rect width="1" height="1" fill="#297303" x="19" y="2" />
<rect width="1" height="1" fill="#297303" x="7" y="3" />
<rect width="1" height="1" fill="#297303" x="8" y="3" />
<rect width="1" height="1" fill="#44af10" x="9" y="3" />
<rect width="1" height="1" fill="#369904" x="10" y="3" />
<rect width="1" height="1" fill="#44af10" x="11" y="3" />
<rect width="1" height="1" fill="#369904" x="12" y="3" />
<rect width="1" height="1" fill="#44af10" x="13" y="3" />
<rect width="1" height="1" fill="#369904" x="14" y="3" />
<rect width="1" height="1" fill="#44af10" x="15" y="3" />
<rect width="1" height="1" fill="#369904" x="16" y="3" />
<rect width="1" height="1" fill="#369904" x="17" y="3" />
<rect width="1" height="1" fill="#369904" x="18" y="3" />
<rect width="1" height="1" fill="#369904" x="19" y="3" />
<rect width="1" height="1" fill="#297303" x="20" y="3" />
<rect width="1" height="1" fill="#297303" x="6" y="4" />
<rect width="1" height="1" fill="#369904" x="7" y="4" />
<rect width="1" height="1" fill="#44af10" x="8" y="4" />
<rect width="1" height="1" fill="#369904" x="9" y="4" />
<rect width="1" height="1" fill="#44af10" x="10" y="4" />
<rect width="1" height="1" fill="#369904" x="11" y="4" />
<rect width="1" height="1" fill="#44af10" x="12" y="4" />
<rect width="1" height="1" fill="#369904" x="13" y="4" />
<rect width="1" height="1" fill="#44af10" x="14" y="4" />
<rect width="1" height="1" fill="#369904" x="15" y="4" />
<rect width="1" height="1" fill="#297303" x="16" y="4" />
<rect width="1" height="1" fill="#297303" x="17" y="4" />
<rect width="1" height="1" fill="#297303" x="18" y="4" />
<rect width="1" height="1" fill="#369904" x="19" y="4" />
<rect width="1" height="1" fill="#369904" x="20" y="4" />
<rect width="1" height="1" fill="#297303" x="21" y="4" />
<rect width="1" height="1" fill="#297303" x="5" y="5" />
<rect width="1" height="1" fill="#369904" x="6" y="5" />
<rect width="1" height="1" fill="#369904" x="7" y="5" />
<rect width="1" height="1" fill="#369904" x="8" y="5" />
<rect width="1" height="1" fill="#369904" x="9" y="5" />
<rect width="1" height="1" fill="#369904" x="10" y="5" />
<rect width="1" height="1" fill="#369904" x="11" y="5" />
<rect width="1" height="1" fill="#369904" x="12" y="5" />
<rect width="1" height="1" fill="#369904" x="13" y="5" />
<rect width="1" height="1" fill="#369904" x="14" y="5" />
<rect width="1" height="1" fill="#369904" x="15" y="5" />
<rect width="1" height="1" fill="#297303" x="16" y="5" />
<rect width="1" height="1" fill="#194f00" x="17" y="5" />
<rect width="1" height="1" fill="#297303" x="18" y="5" />
<rect width="1" height="1" fill="#369904" x="19" y="5" />
<rect width="1" height="1" fill="#369904" x="20" y="5" />
<rect width="1" height="1" fill="#297303" x="21" y="5" />
<rect width="1" height="1" fill="#297303" x="4" y="6" />
<rect width="1" height="1" fill="#369904" x="5" y="6" />
<rect width="1" height="1" fill="#328c2a" x="6" y="6" />
<rect width="1" height="1" fill="#369904" x="7" y="6" />
<rect width="1" height="1" fill="#328c2a" x="8" y="6" />
<rect width="1" height="1" fill="#369904" x="9" y="6" />
<rect width="1" height="1" fill="#328c2a" x="10" y="6" />
<rect width="1" height="1" fill="#369904" x="11" y="6" />
<rect width="1" height="1" fill="#328c2a" x="12" y="6" />
<rect width="1" height="1" fill="#369904" x="13" y="6" />
<rect width="1" height="1" fill="#328c2a" x="14" y="6" />
<rect width="1" height="1" fill="#369904" x="15" y="6" />
<rect width="1" height="1" fill="#297303" x="16" y="6" />
<rect width="1" height="1" fill="#297303" x="17" y="6" />
<rect width="1" height="1" fill="#297303" x="18" y="6" />
<rect width="1" height="1" fill="#369904" x="19" y="6" />
<rect width="1" height="1" fill="#328c2a" x="20" y="6" />
<rect width="1" height="1" fill="#297303" x="21" y="6" />
<rect width="1" height="1" fill="#297303" x="4" y="7" />
<rect width="1" height="1" fill="#328c2a" x="5" y="7" />
<rect width="1" height="1" fill="#369904" x="6" y="7" />
<rect width="1" height="1" fill="#328c2a" x="7" y="7" />
<rect width="1" height="1" fill="#369904" x="8" y="7" />
<rect width="1" height="1" fill="#328c2a" x="9" y="7" />
<rect width="1" height="1" fill="#369904" x="10" y="7" />
<rect width="1" height="1" fill="#328c2a" x="11" y="7" />
<rect width="1" height="1" fill="#369904" x="12" y="7" />
<rect width="1" height="1" fill="#328c2a" x="13" y="7" />
<rect width="1" height="1" fill="#369904" x="14" y="7" />
<rect width="1" height="1" fill="#328c2a" x="15" y="7" />
<rect width="1" height="1" fill="#369904" x="16" y="7" />
<rect width="1" height="1" fill="#328c2a" x="17" y="7" />
<rect width="1" height="1" fill="#369904" x="18" y="7" />
<rect width="1" height="1" fill="#328c2a" x="19" y="7" />
<rect width="1" height="1" fill="#369904" x="20" y="7" />
<rect width="1" height="1" fill="#297303" x="21" y="7" />
<rect width="1" height="1" fill="#297303" x="3" y="8" />
<rect width="1" height="1" fill="#328c2a" x="4" y="8" />
<rect width="1" height="1" fill="#328c2a" x="5" y="8" />
<rect width="1" height="1" fill="#328c2a" x="6" y="8" />
<rect width="1" height="1" fill="#328c2a" x="7" y="8" />
<rect width="1" height="1" fill="#328c2a" x="8" y="8" />
<rect width="1" height="1" fill="#328c2a" x="9" y="8" />
<rect width="1" height="1" fill="#328c2a" x="10" y="8" />
<rect width="1" height="1" fill="#328c2a" x="11" y="8" />
<rect width="1" height="1" fill="#328c2a" x="12" y="8" />
<rect width="1" height="1" fill="#328c2a" x="13" y="8" />
<rect width="1" height="1" fill="#328c2a" x="14" y="8" />
<rect width="1" height="1" fill="#328c2a" x="15" y="8" />
<rect width="1" height="1" fill="#328c2a" x="16" y="8" />
<rect width="1" height="1" fill="#328c2a" x="17" y="8" />
<rect width="1" height="1" fill="#328c2a" x="18" y="8" />
<rect width="1" height="1" fill="#328c2a" x="19" y="8" />
<rect width="1" height="1" fill="#297303" x="20" y="8" />
<rect width="1" height="1" fill="#297303" x="3" y="9" />
<rect width="1" height="1" fill="#328c2a" x="4" y="9" />
<rect width="1" height="1" fill="#328c2a" x="5" y="9" />
<rect width="1" height="1" fill="#297303" x="6" y="9" />
<rect width="1" height="1" fill="#297303" x="7" y="9" />
<rect width="1" height="1" fill="#297303" x="8" y="9" />
<rect width="1" height="1" fill="#297303" x="9" y="9" />
<rect width="1" height="1" fill="#297303" x="10" y="9" />
<rect width="1" height="1" fill="#297303" x="11" y="9" />
<rect width="1" height="1" fill="#297303" x="12" y="9" />
<rect width="1" height="1" fill="#297303" x="13" y="9" />
<rect width="1" height="1" fill="#297303" x="14" y="9" />
<rect width="1" height="1" fill="#297303" x="15" y="9" />
<rect width="1" height="1" fill="#297303" x="16" y="9" />
<rect width="1" height="1" fill="#297303" x="17" y="9" />
<rect width="1" height="1" fill="#297303" x="18" y="9" />
<rect width="1" height="1" fill="#297303" x="19" y="9" />
<rect width="1" height="1" fill="#297303" x="3" y="10" />
<rect width="1" height="1" fill="#328c2a" x="4" y="10" />
<rect width="1" height="1" fill="#328c2a" x="5" y="10" />
<rect width="1" height="1" fill="#297303" x="7" y="10" />
<rect width="1" height="1" fill="#297303" x="10" y="10" />
<rect width="1" height="1" fill="#297303" x="14" y="10" />
<rect width="1" height="1" fill="#297303" x="16" y="10" />
<rect width="1" height="1" fill="#867643" x="22" y="10" />
<rect width="1" height="1" fill="#867643" x="23" y="10" />
<rect width="1" height="1" fill="#297303" x="2" y="11" />
<rect width="1" height="1" fill="#328c2a" x="3" y="11" />
<rect width="1" height="1" fill="#328c2a" x="4" y="11" />
<rect width="1" height="1" fill="#297303" x="7" y="11" />
<rect width="1" height="1" fill="#297303" x="10" y="11" />
<rect width="1" height="1" fill="#297303" x="14" y="11" />
<rect width="1" height="1" fill="#297303" x="16" y="11" />
<rect width="1" height="1" fill="#867643" x="21" y="11" />
<rect width="1" height="1" fill="#867643" x="0" y="12" />
<rect width="1" height="1" fill="#867643" x="1" y="12" />
<rect width="1" height="1" fill="#297303" x="2" y="12" />
<rect width="1" height="1" fill="#328c2a" x="3" y="12" />
<rect width="1" height="1" fill="#328c2a" x="4" y="12" />
<rect width="1" height="1" fill="#867643" x="5" y="12" />
<rect width="1" height="1" fill="#867643" x="6" y="12" />
<rect width="1" height="1" fill="#297303" x="7" y="12" />
<rect width="1" height="1" fill="#867643" x="8" y="12" />
<rect width="1" height="1" fill="#867643" x="9" y="12" />
<rect width="1" height="1" fill="#867643" x="10" y="12" />
<rect width="1" height="1" fill="#867643" x="11" y="12" />
<rect width="1" height="1" fill="#867643" x="12" y="12" />
<rect width="1" height="1" fill="#867643" x="13" y="12" />
<rect width="1" height="1" fill="#297303" x="14" y="12" />
<rect width="1" height="1" fill="#867643" x="15" y="12" />
<rect width="1" height="1" fill="#867643" x="16" y="12" />
<rect width="1" height="1" fill="#867643" x="17" y="12" />
<rect width="1" height="1" fill="#867643" x="18" y="12" />
<rect width="1" height="1" fill="#867643" x="19" y="12" />
<rect width="1" height="1" fill="#867643" x="20" y="12" />
<rect width="1" height="1" fill="#867643" x="21" y="12" />
<rect width="1" height="1" fill="#867643" x="22" y="12" />
<rect width="1" height="1" fill="#867643" x="23" y="12" />
<rect width="1" height="1" fill="#867643" x="24" y="12" />
<rect width="1" height="1" fill="#297303" x="2" y="13" />
<rect width="1" height="1" fill="#328c2a" x="3" y="13" />
<rect width="1" height="1" fill="#867643" x="11" y="13" />
<rect width="1" height="1" fill="#867643" x="12" y="13" />
<rect width="1" height="1" fill="#297303" x="2" y="14" />
<rect width="1" height="1" fill="#328c2a" x="3" y="14" />
<rect width="1" height="1" fill="#297303" x="6" y="14" />
<rect width="1" height="1" fill="#297303" x="7" y="14" />
<rect width="1" height="1" fill="#867643" x="13" y="14" />
<rect width="1" height="1" fill="#297303" x="2" y="15" />
<rect width="1" height="1" fill="#328c2a" x="3" y="15" />
<rect width="1" height="1" fill="#297303" x="5" y="15" />
<rect width="1" height="1" fill="#297303" x="8" y="15" />
<rect width="1" height="1" fill="#867643" x="14" y="15" />
<rect width="1" height="1" fill="#867643" x="15" y="15" />
<rect width="1" height="1" fill="#867643" x="16" y="15" />
<rect width="1" height="1" fill="#297303" x="2" y="16" />
<rect width="1" height="1" fill="#328c2a" x="3" y="16" />
<rect width="1" height="1" fill="#297303" x="6" y="16" />
<rect width="1" height="1" fill="#297303" x="9" y="16" />
<rect width="1" height="1" fill="#867643" x="17" y="16" />
<rect width="1" height="1" fill="#867643" x="18" y="16" />
<rect width="1" height="1" fill="#297303" x="3" y="17" />
<rect width="1" height="1" fill="#328c2a" x="4" y="17" />
<rect width="1" height="1" fill="#328c2a" x="8" y="17" />
<rect width="1" height="1" fill="#297303" x="9" y="17" />
<rect width="1" height="1" fill="#297303" x="4" y="18" />
<rect width="1" height="1" fill="#328c2a" x="5" y="18" />
<rect width="1" height="1" fill="#328c2a" x="6" y="18" />
<rect width="1" height="1" fill="#328c2a" x="7" y="18" />
<rect width="1" height="1" fill="#297303" x="8" y="18" />
<rect width="1" height="1" fill="#297303" x="5" y="19" />
<rect width="1" height="1" fill="#297303" x="7" y="19" />
<rect width="1" height="1" fill="#297303" x="6" y="19" />
</svg>
